<svg xmlns="http://www.w3.org/2000/svg" viewBox="0 0 512 512">
  <defs>
    <linearGradient id="c-gradient" x1="0" y1="0" x2="1" y2="1">
      <stop offset="0" stop-color="#ffe6ff"/>
      <stop offset="0.5" stop-color="#ff9ad6"/>
      <stop offset="1" stop-color="#ff5fb0"/>
    </linearGradient>
  </defs>
  <rect width="512" height="512" rx="128" fill="#ffffff"/>
  <path
    fill="url(#c-gradient)"
    d="M360 92c-33-12.5-64.8-18.5-95.8-18.5C164 73.5 96 147.7 96 259.5 96 371 162.7 440 263.5 440c36.7 0 70.3-7.9 101.6-24.2 11.5-6 16.9-13.7 16.9-23.2 0-12-9.6-21.6-21.7-21.6-4.8 0-9.2 1.4-14.9 4.4-22.8 11.9-46.9 17.8-77.1 17.8-79.8 0-129.3-51.4-129.3-133.7 0-81.5 49.2-133.3 130.7-133.3 25.5 0 48.9 4.8 73.6 15.4 4.4 1.9 8.4 2.8 12.3 2.8 12.8 0 22.3-9 22.3-21.5 0-10.3-5.8-18.2-17.9-23Z"
  />
</svg>

